<svg id="svg" version="1.1" xmlns="http://www.w3.org/2000/svg" xmlns:xlink="http://www.w3.org/1999/xlink" width="100" height="52" viewBox="0, 0, 400,210"><g id="svgg"><path id="path0" d="M167.962 50.969 C 152.041 52.636,141.599 69.112,146.674 84.559 C 148.470 90.026,148.902 90.557,162.896 104.480 C 184.589 126.064,200.024 141.282,200.223 141.282 C 200.448 141.282,247.722 94.082,248.962 92.620 C 254.335 86.283,256.158 76.352,253.429 68.285 C 248.262 53.012,230.116 46.180,216.067 54.218 C 213.597 55.631,212.057 56.977,205.950 63.057 C 202.810 66.184,200.148 68.709,200.034 68.668 C 199.920 68.626,197.148 65.978,193.873 62.783 C 186.596 55.680,185.970 55.166,182.458 53.418 C 178.509 51.451,172.713 50.472,167.962 50.969 " stroke="none" fill="#fc6c4c" fill-rule="evenodd"></path><path id="path1" d="M0.000 105.042 L 0.000 210.084 200.000 210.084 L 400.000 210.084 400.000 105.042 L 400.000 0.000 200.000 0.000 L 0.000 0.000 0.000 105.042 M174.595 50.957 C 181.803 51.962,184.983 53.890,193.758 62.576 L 200.016 68.770 205.943 62.879 C 213.720 55.150,216.352 53.277,221.534 51.783 C 244.820 45.072,263.743 70.519,250.496 90.732 C 249.064 92.916,200.811 141.445,200.176 141.340 C 199.888 141.292,180.803 122.488,155.764 97.584 C 145.504 87.379,143.128 79.682,146.610 67.935 C 149.836 57.052,162.634 49.288,174.595 50.957 M171.606 124.720 L 194.157 147.153 190.724 150.527 C 187.068 154.118,185.405 155.360,182.253 156.851 C 168.876 163.177,152.628 156.872,147.171 143.238 C 145.382 138.768,145.510 140.606,145.434 118.382 L 145.366 98.634 147.210 100.460 C 148.225 101.464,159.203 112.381,171.606 124.720 M254.777 117.910 C 254.702 136.719,254.692 137.117,254.244 139.044 C 250.076 156.943,229.606 165.067,214.312 154.890 C 212.670 153.798,206.092 147.689,206.092 147.256 C 206.092 147.042,254.464 98.750,254.685 98.744 C 254.777 98.742,254.818 107.366,254.777 117.910 " stroke="none" fill="#fbfbfb" fill-rule="evenodd"></path><path id="path2" d="M170.227 50.785 C 170.779 50.828,171.630 50.828,172.118 50.784 C 172.605 50.740,172.153 50.704,171.113 50.705 C 170.074 50.705,169.675 50.742,170.227 50.785 M228.000 50.785 C 228.552 50.828,229.403 50.828,229.891 50.784 C 230.378 50.740,229.926 50.704,228.887 50.705 C 227.847 50.705,227.448 50.742,228.000 50.785 M153.663 57.405 L 153.046 58.088 153.729 57.471 C 154.105 57.132,154.412 56.825,154.412 56.788 C 154.412 56.626,154.238 56.769,153.663 57.405 M188.025 56.991 C 188.025 57.022,188.758 57.755,189.653 58.619 L 191.282 60.189 189.711 58.561 C 188.253 57.049,188.025 56.837,188.025 56.991 M206.616 62.237 L 201.786 67.122 206.670 62.292 C 211.209 57.803,211.649 57.353,211.500 57.353 C 211.471 57.353,209.273 59.551,206.616 62.237 M151.562 59.506 L 150.945 60.189 151.628 59.572 C 152.004 59.233,152.311 58.925,152.311 58.889 C 152.311 58.727,152.138 58.870,151.562 59.506 M254.689 75.000 C 254.689 75.751,254.727 76.058,254.774 75.683 C 254.820 75.307,254.820 74.693,254.774 74.317 C 254.727 73.942,254.689 74.249,254.689 75.000 M145.241 76.471 C 145.241 77.453,145.278 77.855,145.322 77.363 C 145.366 76.872,145.366 76.069,145.322 75.578 C 145.278 75.087,145.241 75.488,145.241 76.471 M254.689 77.731 C 254.689 78.482,254.727 78.789,254.774 78.414 C 254.820 78.038,254.820 77.424,254.774 77.048 C 254.727 76.673,254.689 76.980,254.689 77.731 M246.739 95.011 L 244.853 96.954 246.796 95.067 C 248.601 93.315,248.835 93.067,248.683 93.067 C 248.651 93.067,247.777 93.942,246.739 95.011 M155.042 96.954 C 156.946 98.860,158.551 100.420,158.609 100.420 C 158.666 100.420,157.156 98.860,155.252 96.954 C 153.348 95.047,151.743 93.487,151.685 93.487 C 151.628 93.487,153.138 95.047,155.042 96.954 M224.895 116.859 L 205.147 136.660 224.947 116.912 C 243.355 98.554,244.842 97.059,244.695 97.059 C 244.666 97.059,235.756 105.969,224.895 116.859 M145.434 118.382 C 145.510 140.606,145.382 138.768,147.171 143.238 C 152.628 156.872,168.876 163.177,182.253 156.851 C 185.405 155.360,187.068 154.118,190.724 150.527 L 194.157 147.153 171.606 124.720 C 159.203 112.381,148.225 101.464,147.210 100.460 L 145.366 98.634 145.434 118.382 M230.305 122.920 C 216.988 136.214,206.092 147.165,206.092 147.256 C 206.092 147.689,212.670 153.798,214.312 154.890 C 229.606 165.067,250.076 156.943,254.244 139.044 C 254.719 137.001,255.138 98.732,254.685 98.744 C 254.592 98.746,243.621 109.626,230.305 122.920 M166.807 108.508 C 167.199 108.913,167.567 109.244,167.624 109.244 C 167.682 109.244,167.409 108.913,167.017 108.508 C 166.625 108.104,166.257 107.773,166.199 107.773 C 166.141 107.773,166.415 108.104,166.807 108.508 M173.845 115.546 C 176.847 118.550,179.351 121.008,179.409 121.008 C 179.467 121.008,177.057 118.550,174.055 115.546 C 171.052 112.542,168.548 110.084,168.490 110.084 C 168.433 110.084,170.842 112.542,173.845 115.546 M195.168 136.660 C 197.766 139.259,199.939 141.387,199.996 141.387 C 200.054 141.387,197.976 139.259,195.378 136.660 C 192.780 134.060,190.607 131.933,190.550 131.933 C 190.492 131.933,192.570 134.060,195.168 136.660 M202.622 139.128 L 200.315 141.492 202.679 139.184 C 203.978 137.915,205.042 136.852,205.042 136.821 C 205.042 136.669,204.766 136.933,202.622 139.128 " stroke="none" fill="#acb4b3" fill-rule="evenodd"></path></g></svg>